<svg xmlns="http://www.w3.org/2000/svg" viewBox="0 0 32 32" width="32" height="32">
  <defs>
    <linearGradient id="brainGradient" x1="0%" y1="0%" x2="100%" y2="100%">
      <stop offset="0%" style="stop-color:#3B82F6;stop-opacity:1" />
      <stop offset="50%" style="stop-color:#10B981;stop-opacity:1" />
      <stop offset="100%" style="stop-color:#6366F1;stop-opacity:1" />
    </linearGradient>
    <linearGradient id="chartGradient" x1="0%" y1="0%" x2="100%" y2="100%">
      <stop offset="0%" style="stop-color:#F59E0B;stop-opacity:1" />
      <stop offset="100%" style="stop-color:#EF4444;stop-opacity:1" />
    </linearGradient>
  </defs>
  
  <!-- Background circle -->
  <circle cx="16" cy="16" r="15" fill="#FFFFFF" stroke="url(#brainGradient)" stroke-width="2"/>
  
  <!-- Brain shape -->
  <path d="M8 14c0-3 2-5 5-5s5 2 5 5c1-1 3 0 3 2s-1 3-2 3c0 2-2 4-4 4s-4-2-4-4c-1 0-2-1-2-3s2-3 3-2z" 
        fill="url(#brainGradient)" opacity="0.8"/>
  
  <!-- Neural network dots -->
  <circle cx="10" cy="12" r="1" fill="#3B82F6"/>
  <circle cx="14" cy="10" r="1" fill="#10B981"/>
  <circle cx="18" cy="12" r="1" fill="#6366F1"/>
  <circle cx="22" cy="14" r="1" fill="#3B82F6"/>
  
  <!-- Connecting lines -->
  <line x1="10" y1="12" x2="14" y2="10" stroke="#3B82F6" stroke-width="0.5" opacity="0.6"/>
  <line x1="14" y1="10" x2="18" y2="12" stroke="#10B981" stroke-width="0.5" opacity="0.6"/>
  <line x1="18" y1="12" x2="22" y2="14" stroke="#6366F1" stroke-width="0.5" opacity="0.6"/>
  
  <!-- Mini chart bars at bottom -->
  <rect x="9" y="22" width="2" height="4" fill="url(#chartGradient)" opacity="0.7"/>
  <rect x="12" y="20" width="2" height="6" fill="url(#chartGradient)" opacity="0.7"/>
  <rect x="15" y="18" width="2" height="8" fill="url(#chartGradient)" opacity="0.7"/>
  <rect x="18" y="21" width="2" height="5" fill="url(#chartGradient)" opacity="0.7"/>
  <rect x="21" y="19" width="2" height="7" fill="url(#chartGradient)" opacity="0.7"/>
</svg>